<?xml version="1.0" encoding="UTF-8" standalone="no"?>
<!-- Created with Inkscape (http://www.inkscape.org/) -->

<svg
   width="555.10596"
   height="206.62939"
   viewBox="0 0 146.87178 54.670694"
   version="1.1"
   id="svg1"
   xml:space="preserve"
   inkscape:version="1.4.4 (dcaf3e7, 2026-05-05)"
   sodipodi:docname="Bites &amp; Banter.svg"
   xmlns:inkscape="http://www.inkscape.org/namespaces/inkscape"
   xmlns:sodipodi="http://sodipodi.sourceforge.net/DTD/sodipodi-0.dtd"
   xmlns="http://www.w3.org/2000/svg"
   xmlns:svg="http://www.w3.org/2000/svg"><sodipodi:namedview
     id="namedview1"
     pagecolor="#ffffff"
     bordercolor="#000000"
     borderopacity="0.25"
     inkscape:showpageshadow="2"
     inkscape:pageopacity="0.0"
     inkscape:pagecheckerboard="0"
     inkscape:deskcolor="#d1d1d1"
     inkscape:document-units="px"
     inkscape:zoom="2"
     inkscape:cx="1701.5"
     inkscape:cy="2589.75"
     inkscape:window-width="1920"
     inkscape:window-height="991"
     inkscape:window-x="-9"
     inkscape:window-y="-9"
     inkscape:window-maximized="1"
     inkscape:current-layer="layer1"
     showgrid="false"><inkscape:page
       x="0"
       y="0"
       width="146.87178"
       height="54.670692"
       id="page2"
       margin="0"
       bleed="0" /></sodipodi:namedview><defs
     id="defs1"><inkscape:path-effect
       effect="envelope"
       id="path-effect10"
       is_visible="true"
       lpeversion="1"
       yy="true"
       xx="true"
       bendpath1="M 374.05859,574.61523 512.63574,561.79947"
       bendpath2="m 495.89258,574.61523 v 23.66016"
       bendpath3="M 374.05859,598.27539 H 495.89258"
       bendpath4="m 374.05859,574.61523 v 23.66016"
       bendpath1-nodetypes="cc" /></defs><g
     inkscape:label="Layer 1"
     inkscape:groupmode="layer"
     id="layer1"
     transform="translate(-654.7309,-548.96069)"><g
       id="g10"><path
         id="path7"
         style="font-size:37.2572px;font-family:'Chilada ICG Uno';-inkscape-font-specification:'Chilada ICG Uno, Normal';letter-spacing:0.312881px;fill:#84e691;stroke-width:0.695112"
         d="m 674.43849,548.96065 -19.70763,3.47022 1.18965,24.1022 16.52988,-2.90996 a 1.9747229,1.9747229 0 0 1 2.28552,1.59751 l 0.41711,2.33179 1.68761,-5.76992 -1.69069,-6.00566 -4.40381,-1.51236 2.44657,-0.35604 2.89144,-5.73908 z m 84.63996,0.53373 -3.95952,4.9826 1.02304,9.47587 12.94611,6.27285 -0.3116,4.04777 -5.60518,0.44489 0.0889,-5.07146 -6.58381,0.0888 -0.14131,4.69875 a 1.9747229,1.9747229 0 0 1 0.86324,-0.19561 l 17.60477,1.46733 a 1.9747229,1.9747229 0 0 1 1.77276,2.35524 l -0.0636,0.31592 0.0717,-0.011 0.71205,-12.76779 -14.32457,-4.44823 -0.31161,-4.36001 7.02871,-0.31098 v 4.84871 l 6.62886,-2.26887 0.3116,-7.4736 z m -30.0017,0.22276 3.23883,27.28365 19.38556,-2.08499 -0.51461,-4.24523 -12.14519,0.9342 0.17831,-3.91511 7.82963,0.13328 v -7.162 l -8.45283,0.97864 0.44489,-4.22612 9.34259,1.60124 1.51236,-7.56246 z m -3.44308,0.48931 -27.71558,2.98031 0.35603,13.79145 8.76383,-7.1626 -0.92865,14.56585 6.15744,0.65282 a 1.9747229,1.9747229 0 0 1 1.48336,0.94469 l 2.04054,3.38694 1.70182,-0.46526 -3.82627,-21.04229 0.0451,-0.0451 10.40948,4.35999 z m -34.495,1.1119 -11.25543,2.71375 3.03338,22.7879 a 1.9747229,1.9747229 0 0 1 1.30195,-0.65901 l 9.62952,-0.8657 a 1.9747229,1.9747229 0 0 1 0.0352,-0.002 l -3.10062,-10.71737 z m -25.64232,4.13725 3.4258,1.55741 -0.93419,2.66933 -4.40443,0.93419 v -3.47025 z m -1.91282,11.78917 4.40443,0.31161 1.42352,5.02701 -5.51636,2.35773 z" /><path
         id="path8"
         style="font-size:31.5061px;font-family:'Chilada ICG Uno';-inkscape-font-specification:'Chilada ICG Uno, Normal';letter-spacing:0.264583px;fill:#ffffff;stroke-width:0.492286"
         sodipodi:type="inkscape:offset"
         inkscape:radius="0"
         inkscape:original="M 494.50586 574.61523 L 477.17773 577.41992 L 479.54102 585.35938 L 477.27148 597.07812 L 484.70703 596.95312 L 484.14062 590.8418 L 491.57617 598.08789 L 495.89258 592.10156 L 488.36133 588.41406 L 488.36133 588.38281 L 493.78125 586.42969 L 494.50586 574.61523 z M 388.01562 574.77344 L 374.05859 577.23047 L 375.03516 597.01562 L 382.1875 598.08789 L 388.36133 595.56641 L 389.7168 590.93555 L 388.51953 586.68164 L 385.40039 585.61133 L 387.13281 585.35938 L 389.18164 581.29492 L 388.01562 574.77344 z M 428.05273 574.92969 L 427.42383 586.74414 L 427.39062 586.74414 L 420.90039 575.9707 L 414.06445 575.24609 L 415.26172 597.80469 L 422.34961 594.7168 L 420.86914 585.98828 L 420.90039 585.98828 L 427.42383 597.17383 L 433.94531 596.48047 L 434.51172 575.18164 L 428.05273 574.92969 z M 458.73438 575.30859 L 461.41211 597.86719 L 475.02148 595.3457 L 474.39258 590.14844 L 465.79102 590.80859 L 465.91602 588.03711 L 471.46289 588.13086 L 471.46289 583.05859 L 465.47656 583.75195 L 465.79102 580.75977 L 472.40625 581.89258 L 473.47852 576.53711 L 458.73438 575.30859 z M 456.29492 575.6543 L 436.66602 577.76562 L 436.91797 587.5332 L 443.125 582.46094 L 442.11719 598.27539 L 450.5293 595.97656 L 447.82031 581.07422 L 447.85156 581.04297 L 455.22461 584.13086 L 456.29492 575.6543 z M 405.79688 576.19141 L 397.73242 576.91602 L 391.55664 596.19727 L 397.54297 597.01562 L 399.6543 592.16406 L 404.31641 592.44727 L 405.95508 597.55078 L 412.22461 596.35352 L 405.79688 576.19141 z M 381.68164 579.37305 L 384.10938 580.47461 L 383.44727 582.36523 L 380.32812 583.02734 L 380.32812 580.57031 L 381.68164 579.37305 z M 483.13086 580.03516 L 489.27539 580.69531 L 489.27539 584.25586 L 484.36133 585.48438 L 483.13086 580.03516 z M 403.15039 581.98828 L 403.875 587.87891 L 400.41016 587.81641 L 400.72461 582.24023 L 403.15039 581.98828 z M 380.32812 587.72266 L 383.44727 587.94141 L 384.45508 591.50195 L 380.54883 593.17188 L 380.32812 587.72266 z "
         d="m 494.50586,574.61523 -17.32813,2.80469 2.36329,7.93946 -2.26954,11.71874 7.43555,-0.125 -0.56641,-6.11132 7.43555,7.24609 4.31641,-5.98633 -7.53125,-3.6875 v -0.0312 l 5.41992,-1.95312 z m -106.49024,0.15821 -13.95703,2.45703 0.97657,19.78515 7.15234,1.07227 6.17383,-2.52148 1.35547,-4.63086 -1.19727,-4.25391 -3.11914,-1.07031 1.73242,-0.25195 2.04883,-4.06446 z m 40.03711,0.15625 -0.6289,11.81445 h -0.0332 l -6.49023,-10.77344 -6.83594,-0.72461 1.19727,22.5586 7.08789,-3.08789 -1.48047,-8.72852 h 0.0312 l 6.52344,11.18555 6.52148,-0.69336 0.56641,-21.29883 z m 30.68165,0.3789 2.67773,22.5586 13.60937,-2.52149 -0.6289,-5.19726 -8.60156,0.66015 0.125,-2.77148 5.54687,0.0937 v -5.07227 l -5.98633,0.69336 0.31446,-2.99218 6.61523,1.13281 1.07227,-5.35547 z m -2.43946,0.34571 -19.6289,2.11132 0.25195,9.76758 6.20703,-5.07226 -1.00781,15.81445 8.41211,-2.29883 -2.70899,-14.90234 0.0312,-0.0312 7.37305,3.08789 z m -50.49804,0.53711 -8.06446,0.72461 -6.17578,19.28125 5.98633,0.81835 2.11133,-4.85156 4.66211,0.28321 1.63867,5.10351 6.26953,-1.19726 z m -24.11524,3.18164 2.42774,1.10156 -0.66211,1.89062 -3.11915,0.66211 v -2.45703 z m 101.44922,0.66211 6.14453,0.66015 v 3.56055 l -4.91406,1.22852 z m -79.98047,1.95312 0.72461,5.89063 -3.46484,-0.0625 0.31445,-5.57618 z m -22.82227,5.73438 3.11915,0.21875 1.00781,3.56054 -3.90625,1.66993 z"
         transform="matrix(1.194045,0,0,1.194045,209.48463,-110.73639)"
         inkscape:path-effect="#path-effect10" /><text
         xml:space="preserve"
         style="font-style:normal;font-variant:normal;font-weight:normal;font-stretch:normal;font-size:20.4045px;font-family:'Chilada ICG Uno';-inkscape-font-specification:'Chilada ICG Uno, Normal';font-variant-ligatures:normal;font-variant-caps:normal;font-variant-numeric:normal;font-variant-east-asian:normal;writing-mode:lr-tb;direction:ltr;fill:#fff089;fill-opacity:1;stroke-width:0.796038"
         x="783.52399"
         y="572.18805"
         id="text9"
         inkscape:export-filename="B&amp;B_Logo.svg"
         inkscape:export-xdpi="300"
         inkscape:export-ydpi="300"><tspan
           sodipodi:role="line"
           id="tspan8"
           style="font-style:normal;font-variant:normal;font-weight:normal;font-stretch:normal;font-size:20.4045px;font-family:'Chilada ICG Uno';-inkscape-font-specification:'Chilada ICG Uno, Normal';font-variant-ligatures:normal;font-variant-caps:normal;font-variant-numeric:normal;font-variant-east-asian:normal;fill:#fff089;fill-opacity:1;stroke-width:0.796038"
           x="783.52399"
           y="572.18805">&amp;</tspan></text></g></g></svg>
